<svg viewBox="0 0 45 46" xmlns="http://www.w3.org/2000/svg"><path fill="#13B5EA" d="M22.46 45.49a22.48 22.48 0 0 0 22.45-22.5A22.47 22.47 0 0 0 22.46.5 22.47 22.47 0 0 0 0 23a22.48 22.48 0 0 0 22.46 22.49"></path><path fill="#fff" d="m10.75 22.93 3.83-3.85a.69.69 0 0 0-.97-.96l-3.83 3.83-3.85-3.84a.69.69 0 0 0-.97.98l3.84 3.84-3.83 3.84a.69.69 0 1 0 .96.98l3.84-3.84 3.83 3.82a.69.69 0 0 0 1.18-.47.68.68 0 0 0-.2-.48l-3.83-3.85m22.78 0c0 .7.56 1.25 1.25 1.25a1.25 1.25 0 0 0 0-2.5c-.69 0-1.25.56-1.25 1.25m-2.36 0a3.62 3.62 0 1 1 3.61 3.62 3.62 3.62 0 0 1-3.61-3.62m-1.43 0a5.05 5.05 0 1 0 5.04-5.04 5.05 5.05 0 0 0-5.04 5.05m-.35-4.96h-.21c-.64 0-1.25.2-1.76.6a.7.7 0 0 0-.68-.55.68.68 0 0 0-.67.69v8.5a.69.69 0 0 0 1.37-.01v-5.22c0-1.74.16-2.45 1.65-2.63.14-.02.28-.02.29-.02.4-.01.7-.3.7-.67a.69.69 0 0 0-.7-.7M16.2 22.12v-.06a3.64 3.64 0 0 1 7.07.05H16.2zm8.47-.13a5.03 5.03 0 0 0-2.23-3.3 5.06 5.06 0 0 0-5.6.15 5.1 5.1 0 0 0-1.98 5.36 5.08 5.08 0 0 0 4.27 3.76c.61.08 1.2.04 1.81-.12a4.96 4.96 0 0 0 1.51-.64c.49-.31.9-.73 1.3-1.22l.01-.03c.28-.34.23-.83-.07-1.06-.26-.2-.68-.27-1.02.16l-.24.32a3.63 3.63 0 0 1-6.13-1.19 3.72 3.72 0 0 1-.15-.58l-.01-.1h7.17c.98-.03 1.5-.72 1.36-1.52z"></path></svg>