<svg  xmlns="http://www.w3.org/2000/svg" viewBox="0 0 48 31"><path d="m14.76 24.94-.09.09a6.43 6.43 0 0 1-4.58 2.13c-3.4 0-5.87-2.56-5.87-6.08s2.47-6.07 5.87-6.07c1.63 0 3.22.74 4.58 2.13l.09.09 2.19-2.65-.06-.07a8.35 8.35 0 0 0-6.69-3.2c-2.7 0-5.16.91-6.93 2.54C1.34 15.63.32 18.12.32 21.08c0 2.96 1.02 5.46 2.95 7.23a10.12 10.12 0 0 0 6.93 2.55 8.35 8.35 0 0 0 6.7-3.2l.05-.07-2.19-2.65Zm4.4 5.56h3.87V11.62h-3.87V30.5Zm19.02-4.1a5.6 5.6 0 0 1-2.86.94c-1.25 0-1.82-.66-1.82-2.13V15.19h3.95v-3.55H33.5V5.76L29.72 7.8v3.85h-3.27v3.55h3.27v10.66c0 2.9 1.72 4.88 4.28 4.94 1.75.03 2.8-.49 3.43-.87l.04-.03.93-3.64-.22.14Zm3.2 4.1h3.87V11.62h-3.87V30.5Z" fill="#3471A8"></path><path d="M47.5 8.3A19 19 0 0 0 32.13.33a19 19 0 0 0-15.36 7.99l-.18.26h4.45l.05-.06a15.32 15.32 0 0 1 11.04-4.78c4.07 0 8.02 1.66 11.05 4.78l.05.06h4.45l-.18-.26Z" fill="#EE1C25"></path></svg>