<svg class="w-8" xmlns="http://www.w3.org/2000/svg" viewBox="0 0 42 42"><path d="M37.9 29.78c-.5-.36.52.36 0 0a1.15 1.15 0 1 1-1.74 1.28c-.15-.46.02-.99.42-1.26.4-.27.92-.3 1.32-.02ZM23.25 40.46c.25 0 .53 0 .78-.02.52-.02 1.05-.07 1.55-.13-.86.1.42-.04 0 0 .53-.06.95.42.84.95a.84.84 0 0 1-.44.52c-.15.06-.3.06-.44.08a22.9 22.9 0 0 1-4.68-.02 20.24 20.24 0 0 1-10.22-4.13 21.38 21.38 0 0 1-7.26-10.18 21.13 21.13 0 0 1-.04-12.96A21.01 21.01 0 0 1 38.2 6.16a4.14 4.14 0 0 1 1.47 2.87 3.96 3.96 0 0 1-1 2.9 4.06 4.06 0 0 1-4.98.83 3.18 3.18 0 0 1-.73-.54c-.26-.23-.49-.5-.74-.73A12.98 12.98 0 0 0 20.2 8.4c-1.38.36-2.7.95-3.92 1.72a13.23 13.23 0 0 0-5.14 6.55 12.8 12.8 0 0 0-.02 8.56 12.9 12.9 0 0 0 5.1 6.54 12.87 12.87 0 0 0 8.3 2.1c1.43-.13 2.83-.48 4.16-1.07.14-.06.27-.15.42-.17a.77.77 0 0 1 .37.02c.26.09.44.28.5.53.07.23.03.5-.14.7a.96.96 0 0 1-.34.22c-.16.06-.31.15-.48.21a14.62 14.62 0 0 1-8.58.82c.19.2.36.44.53.67l.48.71.08.13h.06l.24.02.44.04a15.62 15.62 0 0 0 11.41-3.78l.63-.56c.19-.17.33-.38.57-.48a1.14 1.14 0 0 1 1.62 1.3c-.07.23-.18.42-.35.56l-.6.6a18.26 18.26 0 0 1-5.81 3.54A19.08 19.08 0 0 1 22.67 39c.1.27.18.55.27.82l.1.38c0 .04.05.14.05.14l.16.1Zm11.71-3.86c-2.16 1.6.34-.25 0 0 .1-.09.25-.15.42-.2a.8.8 0 0 1 .71.39c.15.25.15.58-.02.82-.1.14-.25.23-.38.33l-.46.32c-.3.2-.6.42-.92.6a20.46 20.46 0 0 1-6.1 2.54c-.32.07-.63.02-.84-.25a.73.73 0 0 1-.09-.82.62.62 0 0 1 .27-.3c.15-.08.32-.1.47-.14.35-.08.7-.19 1.07-.3a19.15 19.15 0 0 0 5.87-3Zm2.52-2.27c-.28.3.3-.31 0 0a.76.76 0 0 1 1.2.13c.1.17.12.4.08.59a1.3 1.3 0 0 1-.42.58c-.2.21-.4.42-.61.61a.83.83 0 0 1-.7.23.77.77 0 0 1-.6-.96c.08-.23.27-.38.44-.55.2-.2.42-.42.6-.63Zm-4.76-4.4c-.74.77.29-.3 0 0a.8.8 0 0 1 .96-.13c.31.19.44.59.31.92-.08.17-.2.3-.33.42-.15.15-.27.3-.42.42-.25.23-.5.46-.76.67l-.86.63c-.31.23-.69.26-.98 0a.75.75 0 0 1-.21-.86.82.82 0 0 1 .3-.35l.45-.34c.55-.42 1.05-.88 1.54-1.38Zm-9.38-13.9c.25 0 .5.03.77.03a5 5 0 0 1-1.15 9.88c-1-.06-2-.46-2.77-1.11a4.93 4.93 0 0 1 .27-7.87c.84-.6 1.85-.92 2.88-.92Z" fill="#FF6C36"></path></svg>