<svg xmlns="http://www.w3.org/2000/svg" viewBox="0 0 32 32"><path fill-rule="evenodd" clip-rule="evenodd" d="M5.35 0h21.3A5.35 5.35 0 0 1 32 5.35v21.3C32 29.6 29.6 32 26.65 32H5.35A5.35 5.35 0 0 1 0 26.65V5.35C0 2.39 2.4 0 5.35 0ZM24.5 26.18c.93 0 1.69-.75 1.69-1.69V7.51c0-.94-.76-1.7-1.7-1.7H7.51a1.69 1.69 0 0 0-1.69 1.7v16.98c0 .94.76 1.7 1.69 1.7H24.5Z" fill="#A3A7B1"></path><path d="M12.6 20.34a.97.97 0 0 1-.96-.97v-6.78a.97.97 0 0 1 .97-.98h6.8a.97.97 0 0 1 .96.98v6.78a.97.97 0 0 1-.97.97h-6.8Z" fill="#A3A7B1"></path></svg>