<svg xmlns="http://www.w3.org/2000/svg" viewBox="0 0 600 450"><path d="M122.6 98c-29.2 0-51.5 22.2-51.5 50.6 0 31.2 22.2 43.2 46.9 50.6 23.3 7.4 34.4 15.6 34.4 31.7 0 16.4-12.2 27.9-28.2 27.9s-29.8-11.5-29.8-29.2c0-9.8 4.6-12.3 4.6-17.8 0-6.3-4.3-10.9-11.4-10.9-8.1 0-16.5 12.3-16.5 29.8 0 28.2 24.1 49 53.1 49 29.2 0 51.5-22.2 51.5-50.6 0-30.9-22.2-43.2-47.1-50.6-23-7.1-34.1-15.6-34.1-31.7s11.9-27.6 27.9-27.6c16.5 0 29.8 11.7 30.1 27.9.3 7.4 5.4 11.7 11.4 11.7 6.2 0 11.9-4.4 11.6-12.3-.7-28.2-24.2-48.5-52.9-48.5zm117.5 181.4c13 0 23-4.4 23-13.1 0-6.6-5.4-10.9-10.6-10.9-3.8 0-6.5 1.6-12.7 1.6-16.8 0-30.1-14.5-30.1-31.5 0-18.3 13.5-32.8 30.6-32.8 19.2 0 31.4 14.8 31.4 36.1v39.1c0 6.9 5.4 11.5 11.9 11.5 6.2 0 11.6-4.7 11.6-11.5V228c0-32.8-22.5-56.9-54.5-56.9-29.8 0-54.5 23.3-54.5 54.4.3 30.1 24.7 53.9 53.9 53.9zm119.2 73.3c29.2 0 51.5-22.2 51.5-50.6 0-31.2-22.2-43.2-47.1-50.6-23-7.4-34.1-15.6-34.1-31.7s12.2-27.9 27.9-27.9c16 0 30.1 11.5 30.1 29.2 0 9.9-4.6 12.3-4.6 17.8 0 6.3 4.3 10.9 11.1 10.9 8.4 0 16.8-12.3 16.8-29.8 0-28.2-24.4-49-53.4-49-29.2 0-51.2 22.2-51.2 50.6 0 30.9 21.9 43.2 46.9 50.6 23.3 7.1 34.4 15.6 34.4 31.7 0 16.4-12.2 27.6-27.9 27.6-16.8 0-29.8-11.5-30.1-27.9-.3-7.4-5.7-11.5-11.4-11.5-6.2 0-11.9 4.1-11.6 12 .1 28.7 23.7 48.6 52.7 48.6zm117.6-73.3c15.1 0 27.1-4.4 35.5-9.6 8.1-5.2 11.3-9.6 11.3-14.5 0-5.2-3.8-9.8-10.8-9.8-8.4 0-15.1 12.6-35.8 12.6-18.1 0-32.5-14.5-32.5-32.8 0-18.1 13.8-32.8 31.1-32.8 18.7 0 28.7 12.3 28.7 20.2 0 2.2-1.6 3.3-3.8 3.3h-22.7c-6.2 0-10.8 4.1-10.8 9.6 0 6 4.6 10.4 10.8 10.4H509c11.9 0 19.2-6.3 19.2-17 0-26.8-22.7-47.8-52.9-47.8-29.8 0-53.9 24.1-53.9 54.1s25.1 54.1 55.5 54.1z" fill="#52af38"></path></svg>