<svg xmlns="http://www.w3.org/2000/svg" viewBox="0 0 48 27"><path d="M23.93 26.02C31.5 19.52 42.15 13.21 48 10.94c-.9-.58-2.31-1.41-3.9-2.31-7.54 2.49-16.35 8-24.21 14.25 1.33 1.01 2.74 2.06 4.04 3.14Z" fill="#E31837"></path><path d="M20.46 8.37c-1.12-.54-2.34-1.04-3.28-1.48a81.22 81.22 0 0 0-11.26 6.9c1 .54 2.1 1.19 3.25 1.84 3.6-2.67 7.25-5.2 11.3-7.26Z" fill="#4974D5"></path><path d="M27.21 5.27a51.83 51.83 0 0 0-9.42-3.29c-.97.37-2.34.9-3.28 1.3 1.19.33 5.63 1.52 9.42 3.43.97-.47 2.34-1.04 3.28-1.44Z" fill="#E31837"></path><path d="M11.08 4.8A99.92 99.92 0 0 0 0 10.97c.87.4 1.73.72 2.92 1.3a81.61 81.61 0 0 1 11.2-6.53c-1.2-.43-2.32-.72-3.04-.94Z" fill="#4974D5"></path><path d="M30.39 4.15c.97-.32 2.1-.61 3.07-.9A68.7 68.7 0 0 0 23.93 0c-.5.14-2.02.54-3.07.87 1.08.32 4.66 1.15 9.53 3.28Zm-17.8 13.57c1.16.69 2.39 1.62 3.58 2.42C24.07 14 31.87 9.28 40.42 6.6c-1.19-.6-2.24-1.15-3.57-1.8-5.13 1.3-13.9 4.8-24.25 12.92Z" fill="#E31837"></path></svg>