<svg viewBox="2.17 0.44 251.04 259.97" xmlns="http://www.w3.org/2000/svg"><g fill="none" fill-rule="evenodd"><path d="M221.5 210.32C116.27 260.41 50.96 218.5 9.15 193.05c-2.59-1.6-6.98.38-3.17 4.76 13.93 16.89 59.57 57.6 119.15 57.6 59.63 0 95.1-32.54 99.53-38.21 4.4-5.63 1.3-8.73-3.16-6.88zM251.06 194c-2.83-3.68-17.19-4.36-26.22-3.25-9.05 1.07-22.64 6.6-21.46 9.93.61 1.24 1.85.68 8.06.12 6.24-.62 23.7-2.82 27.34 1.93 3.66 4.8-5.57 27.61-7.25 31.3-1.63 3.67.62 4.62 3.68 2.17 3.01-2.45 8.47-8.8 12.14-17.77 3.64-9.03 5.85-21.63 3.7-24.43z" fill="#f90" fill-rule="nonzero"></path><path d="M150.74 108.13c0 13.14.34 24.1-6.3 35.77-5.37 9.49-13.86 15.32-23.35 15.32-12.95 0-20.5-9.86-20.5-24.43 0-28.75 25.77-33.97 50.15-33.97zm34.02 82.22a7.04 7.04 0 0 1-7.97.8c-11.2-9.3-13.19-13.61-19.36-22.48-18.5 18.88-31.6 24.52-55.6 24.52-28.37 0-50.48-17.5-50.48-52.56 0-27.38 14.85-46.02 35.96-55.13 18.32-8.06 43.89-9.49 63.43-11.72v-4.36c0-8.02.62-17.5-4.08-24.43-4.12-6.22-12-8.78-18.93-8.78-12.85 0-24.33 6.6-27.13 20.26-.57 3.03-2.8 6.02-5.84 6.16l-32.73-3.5c-2.75-.62-5.79-2.85-5.03-7.08C64.54 12.4 100.36.44 132.43.44c16.42 0 37.86 4.36 50.81 16.8 16.42 15.32 14.85 35.76 14.85 58.01v52.57c0 15.8 6.55 22.72 12.71 31.26 2.19 3.04 2.66 6.7-.1 8.97a1425.8 1425.8 0 0 0-25.85 22.4l-.1-.1" fill="#A3A7B1"></path><path d="M221.5 210.32C116.27 260.41 50.96 218.5 9.15 193.05c-2.59-1.6-6.98.38-3.17 4.76 13.93 16.89 59.57 57.6 119.15 57.6 59.63 0 95.1-32.54 99.53-38.21 4.4-5.63 1.3-8.73-3.16-6.88zM251.06 194c-2.83-3.68-17.19-4.36-26.22-3.25-9.05 1.07-22.64 6.6-21.46 9.93.61 1.24 1.85.68 8.06.12 6.24-.62 23.7-2.82 27.34 1.93 3.66 4.8-5.57 27.61-7.25 31.3-1.63 3.67.62 4.62 3.68 2.17 3.01-2.45 8.47-8.8 12.14-17.77 3.64-9.03 5.85-21.63 3.7-24.43z" fill="#f90" fill-rule="nonzero"></path><path d="M150.74 108.13c0 13.14.34 24.1-6.3 35.77-5.37 9.49-13.86 15.32-23.35 15.32-12.95 0-20.5-9.86-20.5-24.43 0-28.75 25.77-33.97 50.15-33.97zm34.02 82.22a7.04 7.04 0 0 1-7.97.8c-11.2-9.3-13.19-13.61-19.36-22.48-18.5 18.88-31.6 24.52-55.6 24.52-28.37 0-50.48-17.5-50.48-52.56 0-27.38 14.85-46.02 35.96-55.13 18.32-8.06 43.89-9.49 63.43-11.72v-4.36c0-8.02.62-17.5-4.08-24.43-4.12-6.22-12-8.78-18.93-8.78-12.85 0-24.33 6.6-27.13 20.26-.57 3.03-2.8 6.02-5.84 6.16l-32.73-3.5c-2.75-.62-5.79-2.85-5.03-7.08C64.54 12.4 100.36.44 132.43.44c16.42 0 37.86 4.36 50.81 16.8 16.42 15.32 14.85 35.76 14.85 58.01v52.57c0 15.8 6.55 22.72 12.71 31.26 2.19 3.04 2.66 6.7-.1 8.97a1425.8 1425.8 0 0 0-25.85 22.4l-.1-.1" fill="#A3A7B1"></path></g></svg>