<svg xmlns="http://www.w3.org/2000/svg" viewBox="0 0 48 48"><path d="M45.01 44.71v-.22l-.02-.14v-.97l-.03-.18v-.5l-.03-.23-.05-.3V42l-.02-.18v-.06l-.03-.2v-.13l-.03-.3-.03-.14-.05-.3-.02-.15-.05-.29v-.08l-.02-.2v-.07l-.03-.13v-.25l-.02-.16-.06-.43-.05-.35-.02-.18-.1-.65-.2-1.4-.16-1.08-.36-2.42-.08-.53-.04-.28-.07-.5-.04-.28-.26-1.79-.02-.2-.16-1.04-.04-.2-.12-.85-.12-.84-.19-1.27-.12-.84-.12-.83-.02-.2-.04-.2-.06-.41-.06-.41-.06-.41-.05-.31-.04-.31v-.38l-.04-.22-.05-.3v-.06l-.03-.23-.03-.16-.02-.14-.05-.3-.05-.29-.03-.29-.03-.12-.02-.15-.05-.3-.04-.28-.03-.26v-.11l-.3-2.07-.05-.32-.04-.26v-.03l-.18-1.25-.06-.38-.03-.26-.25-1.73-.03-.12-.07-.53v-.44l-.02-.17v-.24l-.03-.12V9.4a.47.47 0 0 0-.42-.4l-3.86-.27s-2.57-2.54-2.82-2.82a.56.56 0 0 0-.4-.17l-2.65 42.17 14.77-3.18v-.03Zm-33.2-19.46c0 5.3 5.3 5.43 5.3 8.69a1.85 1.85 0 0 1-1.92 1.86c-2.09 0-4.53-2.12-4.53-2.12L9.4 37.82s2.4 2.9 7.08 2.9c3.89 0 6.79-2.92 6.79-7.5 0-5.8-6.46-6.75-6.46-9.2 0-.46.15-2.26 3.02-2.26a8.5 8.5 0 0 1 3.55.85l1.83-5.41s-1.2-.71-3.74-.75c-6.46 0-9.67 4.35-9.67 8.8Zm8.03-3.5a8.5 8.5 0 0 1 3.55.86l1.83-5.41s-1.2-.71-3.74-.75c-6.46 0-9.67 4.35-9.67 8.8 0 5.3 5.3 5.43 5.3 8.69a1.85 1.85 0 0 1-1.92 1.86c-2.09 0-4.53-2.12-4.53-2.12L9.4 37.82s2.4 2.9 7.08 2.9c3.89 0 6.79-2.92 6.79-7.5 0-5.8-6.46-6.75-6.46-9.2 0-.46.15-2.26 3.02-2.26Z" fill="#93BE47"></path><path d="m45.02 44.74-14.78 3.18L32.3 5.75c.15 0 .3.06.4.17.25.28 2.82 2.82 2.82 2.82l3.86.27a.47.47 0 0 1 .42.4v.23l.03.12V10l.02.16v.26l.07.52.03.12.25 1.73.04.27.06.38.18 1.25v.02l.03.27.05.32.3 2.06.06.36.1.72.03.14.13.87.03.15.02.15.04.23v.07l.07.53V21l.05.31.05.31.06.41.06.41.1.61.03.2.12.83.12.84.19 1.28.12.84.12.84.04.21.15 1.05.04.2.26 1.79.04.27.07.5.04.28.08.53.36 2.43.16 1.08.2 1.4.1.65.02.18.05.35.06.43.02.15v.26l.03.13v.02l.03.24v.09l.05.3.02.16.05.3.03.15.03.29.03.13.03.2v.06l.04.27v.08l.05.3.03.23v.1l.04.22v.2l.02.19.03.15v.78l.02.15v.24l.44.12Z" fill="#5F8D3E"></path><path d="M16.82 24.01c0 2.47 6.46 3.41 6.46 9.22 0 4.57-2.9 7.5-6.8 7.5-4.67 0-7.07-2.9-7.07-2.9l1.25-4.16s2.44 2.11 4.53 2.11a1.85 1.85 0 0 0 1.92-1.86c0-3.24-5.3-3.38-5.3-8.68 0-4.46 3.21-8.8 9.67-8.8 2.53.04 3.76.74 3.76.74L23.4 22.6a8.5 8.5 0 0 0-3.55-.86c-2.88.02-3.03 1.82-3.03 2.27Z" fill="#fff"></path><path d="m31.67 5.77-1.44.46c-.13-.37-.27-.73-.43-1.08-.9-2-2.33-3.64-4.59-3.64h-.23C24.24.53 23.3.08 22.52.08c-6.16.03-9.1 7.72-10.04 11.66-2.4.73-4.08 1.27-4.3 1.32-1.33.42-1.38.45-1.56 1.71-.14.99-3.64 28.05-3.64 28.05l26.66 4.99.6.1L32.3 5.76c.15 0 .3.06.4.17-.25-.28-.82-.2-1.03-.15ZM24.8 7.62v.25l-4.76 1.48c.94-3.48 2.65-5.21 4.15-5.86.45 1.33.66 2.73.61 4.13Zm-2.46-5.86c.29 0 .56.1.8.26-2 .92-4.1 3.26-5 7.94l-3.76 1.15c1.06-3.54 3.55-9.35 7.96-9.35ZM23.4 22.6a8.5 8.5 0 0 0-3.55-.86c-2.88 0-3.02 1.8-3.02 2.26 0 2.47 6.46 3.4 6.46 9.22 0 4.57-2.9 7.5-6.8 7.5-4.67 0-7.07-2.9-7.07-2.9l1.25-4.16s2.44 2.11 4.53 2.11a1.85 1.85 0 0 0 1.92-1.86c0-3.24-5.3-3.38-5.3-8.69 0-4.45 3.21-8.8 9.67-8.8 2.53.04 3.76.75 3.76.75L23.4 22.6Zm3-15.2v-.5c.03-1.27-.17-2.53-.56-3.73 1.38.21 2.31 1.76 2.87 3.54l-2.3.7Z" fill="#93BE47"></path></svg>