<svg xmlns="http://www.w3.org/2000/svg" viewBox="0 0 32 32"><path d="M6.75 20.21a3.36 3.36 0 1 1-3.36-3.36h3.36v3.36Zm1.68 0a3.36 3.36 0 1 1 6.72 0v8.4a3.36 3.36 0 1 1-6.72 0v-8.4Z" fill="#E01E5A"></path><path d="M11.79 6.72a3.36 3.36 0 1 1 3.36-3.36v3.36h-3.36Zm0 1.7a3.36 3.36 0 1 1 0 6.73H3.36a3.36 3.36 0 1 1 0-6.72h8.43Z" fill="#36C5F0"></path><path d="M25.25 11.79a3.36 3.36 0 1 1 3.36 3.36h-3.36v-3.36Zm-1.68 0a3.36 3.36 0 1 1-6.72 0V3.36a3.36 3.36 0 1 1 6.72 0v8.43Z" fill="#2EB67D"></path><path d="M20.21 25.25a3.36 3.36 0 1 1-3.36 3.36v-3.36h3.36Zm0-1.68a3.36 3.36 0 1 1 0-6.72h8.43a3.36 3.36 0 1 1 0 6.72h-8.43Z" fill="#ECB22E"></path></svg>