<svg xmlns="http://www.w3.org/2000/svg" viewBox="0 0 44 40"><path d="M25.1 33.63V0l-2.88.42C14.82 1.68 7.43 2.42 0 3.63v31.81c7.31 1.22 14.72 2.43 22.08 3.7h3v-5.51h.03Zm-10.88-6.98a51.87 51.87 0 0 1-2.43-5.71c-.67 1.85-1.59 3.58-2.34 5.4-1.06 0-2.12-.06-3.18-.1 1.24-2.29 2.44-4.6 3.72-6.86-1.09-2.35-2.28-4.64-3.4-6.96l3.2-.17c.71 1.77 1.5 3.53 2.1 5.35.67-1.93 1.58-3.78 2.4-5.62l3.28-.19c-1.28 2.49-2.58 4.98-3.88 7.48l4.01 7.62c-1.16-.1-2.32-.16-3.48-.24ZM26.33 4.36v2.41h5.11v3.56h-5.11v1.95h5.11v3.56h-5.11v1.96h5.11v3.55h-5.11v1.95h5.11v3.53h-5.11v2.07h5.11v3.44h-5.11v2.41H44V4.36H26.33Zm13.77 28h-7.44v-3.44h7.44v3.45Zm0-5.5h-7.44V23.3h7.44v3.56Zm0-5.52h-7.44V17.8h7.44v3.55Zm0-5.51h-7.44v-3.55h7.44v3.55Zm0-5.51h-7.44V6.77h7.44v3.55Z" fill="#00AC47"></path></svg>